{"title":"[TDT]Tezaab (1988) 2CD DVDRIP.X264. AC3@MASTITORRENTS","uid":5133086,"size":1464988330,"categoryP":"video","categoryS":"movies_dvdr","magnet":"?xt=urn:btih:0d4903d6607c4a37db53c0ae702a4a841d84567a&amp;dn=%5BTDT%5DTezaab+%281988%29+2CD+DVDRIP.X264.+AC3%40MASTITORRENTS&amp;tr=udp%3A%2F%2Ftracker.openbittorrent.com%3A80&amp;tr=udp%3A%2F%2Fopen.demonii.com%3A1337&amp;tr=udp%3A%2F%2Ftracker.coppersurfer.tk%3A6969&amp;tr=udp%3A%2F%2Fexodus.desync.com%3A6969","seeders":0,"leechers":1,"uploader":"ankurcods","files":1,"time":1256307075,"description":" Release Date: 1988\nRuntime: 173 min\nGenre: Musical, Romance\nStarring: Anil Kapoor, Madhuri Dixit, Anupam Kher, Chunky Pandey\nDirector: N Chandra\nSOURCE : REMASTERED DVD5@TEAM DUS(PROBABLY ORIGINAL SOURCE WAS A VCD)\n\nQuote:\n\nGeneral\nComplete name : F:VTS_01_1-muxed.mkv\nFormat : Matroska\nFile size : 1.36 GiB\nDuration : 2h 50mn\nOverall bit rate : 1 148 Kbps\nEncoded date : UTC 2009-10-16 06:19:43\nWriting application : mkvmerge v2.9.7 ('Tenderness') built on Jul 1 2009 18:43:35\nWriting library : libebml v0.7.7 + libmatroska v0.8.1\n\nVideo\nID : 1\nFormat : AVC\nFormat/Info : Advanced Video Codec\nFormat profile : &lt;a class=&quot;__cf_email__&quot; href=&quot;/cdn-cgi/l/email-protection&quot; data-cfemail=&quot;eda5848a85ada1dec3dd&quot;&gt;[email&amp;#160;protected]&lt;/a&gt;&lt;script cf-hash='f9e31' type=&quot;text/javascript&quot;&gt;\n/* &lt;![CDATA[ */!function(){try{var t=&quot;currentScript&quot;in document?document.currentScript:function(){for(var t=document.getElementsByTagName(&quot;script&quot;),e=t.length;e--;)if(t[e].getAttribute(&quot;cf-hash&quot;))return t[e]}();if(t&amp;&amp;t.previousSibling){var e,r,n,i,c=t.previousSibling,a=c.getAttribute(&quot;data-cfemail&quot;);if(a){for(e=&quot;&quot;,r=parseInt(a.substr(0,2),16),n=2;a.length-n;n+=2)i=parseInt(a.substr(n,2),16)^r,e+=String.fromCharCode(i);e=document.createTextNode(e),c.parentNode.replaceChild(e,c)}}}catch(u){}}();/* ]]&gt; */&lt;/script&gt;\nFormat settings, CABAC : Yes\nFormat settings, ReFrames : 2 frames\nMuxing mode : Container profile=&lt;a class=&quot;__cf_email__&quot; href=&quot;/cdn-cgi/l/email-protection&quot; data-cfemail=&quot;b7e2d9dcd9d8c0d9f7849987&quot;&gt;[email&amp;#160;protected]&lt;/a&gt;&lt;script cf-hash='f9e31' type=&quot;text/javascript&quot;&gt;\n/* &lt;![CDATA[ */!function(){try{var t=&quot;currentScript&quot;in document?document.currentScript:function(){for(var t=document.getElementsByTagName(&quot;script&quot;),e=t.length;e--;)if(t[e].getAttribute(&quot;cf-hash&quot;))return t[e]}();if(t&amp;&amp;t.previousSibling){var e,r,n,i,c=t.previousSibling,a=c.getAttribute(&quot;data-cfemail&quot;);if(a){for(e=&quot;&quot;,r=parseInt(a.substr(0,2),16),n=2;a.length-n;n+=2)i=parseInt(a.substr(n,2),16)^r,e+=String.fromCharCode(i);e=document.createTextNode(e),c.parentNode.replaceChild(e,c)}}}catch(u){}}();/* ]]&gt; */&lt;/script&gt;\nCodec ID : V_MPEG4/ISO/AVC\nDuration : 2h 49mn\nBit rate : 997 Kbps\nNominal bit rate : 1 017 Kbps\nWidth : 700 pixels\nHeight : 348 pixels\nDisplay aspect ratio : 2.011\nFrame rate : 29.970 fps\nResolution : 24 bits\nColorimetry : 4:2:0\nScan type : Progressive\nBits/(Pixel*Frame) : 0.137\nStream size : 1.18 GiB (87%)\nWriting library : x264 core 68 r1183M f21daff\nLanguage : English\n\nAudio\nID : 2\nFormat : AC-3\nFormat/Info : Audio Coding 3\nCodec ID : A_AC3\nDuration : 2h 50mn\nBit rate mode : Constant\nBit rate : 128 Kbps\nChannel(s) : 2 channels\nChannel positions : L R\nSampling rate : 48.0 KHz\nStream size : 156 MiB (11%)\n\nfor details and ss:","torrent":{"xt":"urn:btih:0d4903d6607c4a37db53c0ae702a4a841d84567a","amp;dn":"%5BTDT%5DTezaab+%281988%29+2CD+DVDRIP.X264.+AC3%40MASTITORRENTS","amp;tr":["udp%3A%2F%2Ftracker.openbittorrent.com%3A80","udp%3A%2F%2Fopen.demonii.com%3A1337","udp%3A%2F%2Ftracker.coppersurfer.tk%3A6969","udp%3A%2F%2Fexodus.desync.com%3A6969"],"infoHash":"0d4903d6607c4a37db53c0ae702a4a841d84567a","infoHashBuffer":{"type":"Buffer","data":[13,73,3,214,96,124,74,55,219,83,192,174,112,42,74,132,29,132,86,122]},"announce":[],"urlList":[]}}